<svg width="48" height="48" viewBox="0 0 48 48" fill="none" xmlns="http://www.w3.org/2000/svg">
<g clip-path="url(#clip0_482_47457)">
<path d="M47.9 24C47.9 10.7452 37.1772 0 23.95 0C10.7228 0 0 10.7452 0 24C0 35.9789 8.75812 45.908 20.2078 47.7084V30.9375H14.1268V24H20.2078V18.7125C20.2078 12.6975 23.7835 9.375 29.2541 9.375C31.8736 9.375 34.6152 9.84375 34.6152 9.84375V15.75H31.5953C28.6203 15.75 27.6922 17.6002 27.6922 19.5V24H34.3346L33.2727 30.9375H27.6922V47.7084C39.1419 45.908 47.9 35.9789 47.9 24Z" fill="white"/>
<path d="M33.2729 30.9375L34.3348 24H27.6924V19.5C27.6924 17.602 28.6204 15.75 31.5955 15.75H34.6154V9.84375C34.6154 9.84375 31.8747 9.375 29.2543 9.375C23.7837 9.375 20.208 12.6975 20.208 18.7125V24H14.127V30.9375H20.208V47.7084C22.6877 48.0972 25.2127 48.0972 27.6924 47.7084V30.9375H33.2729Z" fill="#0B5570"/>
</g>
<defs>
<clipPath id="clip0_482_47457">
<rect width="47.9" height="48" fill="white"/>
</clipPath>
</defs>
</svg>
