<svg width="49" height="48" viewBox="0 0 49 48" fill="none" xmlns="http://www.w3.org/2000/svg">
<g clip-path="url(#clip0_482_47458)">
<path d="M24.7669 4.32187C31.166 4.32187 31.9238 4.35 34.4405 4.4625C36.7793 4.56562 38.0423 4.95938 38.8843 5.2875C39.9976 5.71875 40.8022 6.24375 41.6348 7.07812C42.4768 7.92188 42.9914 8.71875 43.4217 9.83438C43.7491 10.6781 44.1421 11.9531 44.245 14.2875C44.3573 16.8187 44.3853 17.5781 44.3853 23.9813C44.3853 30.3938 44.3573 31.1531 44.245 33.675C44.1421 36.0188 43.7491 37.2844 43.4217 38.1281C42.9914 39.2438 42.4674 40.05 41.6348 40.8844C40.7928 41.7281 39.9976 42.2438 38.8843 42.675C38.0423 43.0031 36.77 43.3969 34.4405 43.5C31.9145 43.6125 31.1567 43.6406 24.7669 43.6406C18.3678 43.6406 17.61 43.6125 15.0933 43.5C12.7545 43.3969 11.4915 43.0031 10.6495 42.675C9.53619 42.2438 8.73162 41.7188 7.89898 40.8844C7.05699 40.0406 6.54244 39.2438 6.11209 38.1281C5.78465 37.2844 5.39172 36.0094 5.28881 33.675C5.17654 31.1438 5.14848 30.3844 5.14848 23.9813C5.14848 17.5688 5.17654 16.8094 5.28881 14.2875C5.39172 11.9437 5.78465 10.6781 6.11209 9.83438C6.54244 8.71875 7.06635 7.9125 7.89898 7.07812C8.74098 6.23438 9.53619 5.71875 10.6495 5.2875C11.4915 4.95938 12.7638 4.56562 15.0933 4.4625C17.61 4.35 18.3678 4.32187 24.7669 4.32187ZM24.7669 0C18.2648 0 17.4509 0.028125 14.8969 0.140625C12.3522 0.253125 10.6027 0.665625 9.08713 1.25625C7.50606 1.875 6.16822 2.69062 4.83975 4.03125C3.50191 5.3625 2.68799 6.70313 2.07053 8.27813C1.48113 9.80625 1.06949 11.55 0.957227 14.1C0.844961 16.6687 0.816895 17.4844 0.816895 24C0.816895 30.5156 0.844961 31.3312 0.957227 33.8906C1.06949 36.4406 1.48113 38.1938 2.07053 39.7125C2.68799 41.2969 3.50191 42.6375 4.83975 43.9688C6.16822 45.3 7.50606 46.125 9.07777 46.7344C10.6027 47.325 12.3428 47.7375 14.8875 47.85C17.4416 47.9625 18.2555 47.9906 24.7575 47.9906C31.2596 47.9906 32.0735 47.9625 34.6276 47.85C37.1722 47.7375 38.9217 47.325 40.4373 46.7344C42.009 46.125 43.3469 45.3 44.6753 43.9688C46.0038 42.6375 46.8271 41.2969 47.4352 39.7219C48.0246 38.1938 48.4362 36.45 48.5485 33.9C48.6608 31.3406 48.6888 30.525 48.6888 24.0094C48.6888 17.4938 48.6608 16.6781 48.5485 14.1188C48.4362 11.5688 48.0246 9.81563 47.4352 8.29688C46.8458 6.70312 46.0319 5.3625 44.694 4.03125C43.3656 2.7 42.0277 1.875 40.456 1.26562C38.9311 0.675 37.191 0.2625 34.6463 0.15C32.0829 0.028125 31.2689 0 24.7669 0Z" fill="white"/>
<path d="M24.7668 11.6719C17.9747 11.6719 12.4644 17.1938 12.4644 24C12.4644 30.8062 17.9747 36.3281 24.7668 36.3281C31.5589 36.3281 37.0692 30.8062 37.0692 24C37.0692 17.1938 31.5589 11.6719 24.7668 11.6719ZM24.7668 31.9969C20.3604 31.9969 16.7866 28.4156 16.7866 24C16.7866 19.5844 20.3604 16.0031 24.7668 16.0031C29.1732 16.0031 32.747 19.5844 32.747 24C32.747 28.4156 29.1732 31.9969 24.7668 31.9969Z" fill="white"/>
<path d="M40.4278 11.1848C40.4278 12.7785 39.1368 14.0629 37.5557 14.0629C35.9653 14.0629 34.6836 12.7691 34.6836 11.1848C34.6836 9.59102 35.9746 8.30664 37.5557 8.30664C39.1368 8.30664 40.4278 9.60039 40.4278 11.1848Z" fill="white"/>
</g>
<defs>
<clipPath id="clip0_482_47458">
<rect width="47.9" height="48" fill="white" transform="translate(0.816895)"/>
</clipPath>
</defs>
</svg>
