<svg width="49" height="48" viewBox="0 0 49 48" fill="none" xmlns="http://www.w3.org/2000/svg">
<g clip-path="url(#clip0_482_47459)">
<path d="M44.9973 0H4.16925C3.23146 0 2.33208 0.373315 1.66896 1.03782C1.00584 1.70232 0.633301 2.60358 0.633301 3.54333V44.4567C0.633301 45.3964 1.00584 46.2977 1.66896 46.9622C2.33208 47.6267 3.23146 48 4.16925 48H44.9973C45.9351 48 46.8345 47.6267 47.4977 46.9622C48.1608 46.2977 48.5333 45.3964 48.5333 44.4567V3.54333C48.5333 2.60358 48.1608 1.70232 47.4977 1.03782C46.8345 0.373315 45.9351 0 44.9973 0ZM14.9102 40.89H7.70853V17.9667H14.9102V40.89ZM11.3044 14.79C10.4875 14.7854 9.69022 14.5384 9.01328 14.0802C8.33633 13.622 7.81 12.9731 7.50072 12.2154C7.19144 11.4577 7.11307 10.6252 7.2755 9.82291C7.43792 9.02063 7.83387 8.28455 8.41337 7.70756C8.99287 7.13057 9.72994 6.73853 10.5316 6.58092C11.3332 6.42331 12.1635 6.50719 12.9176 6.82197C13.6717 7.13675 14.3158 7.66833 14.7687 8.34962C15.2216 9.03092 15.463 9.83138 15.4623 10.65C15.47 11.1981 15.3676 11.7421 15.161 12.2496C14.9544 12.7571 14.648 13.2178 14.26 13.6041C13.872 13.9905 13.4103 14.2946 12.9025 14.4983C12.3947 14.702 11.8512 14.8012 11.3044 14.79ZM41.4548 40.91H34.2564V28.3867C34.2564 24.6933 32.6897 23.5533 30.6673 23.5533C28.5317 23.5533 26.4361 25.1667 26.4361 28.48V40.91H19.2345V17.9833H26.16V21.16H26.2532C26.9484 19.75 29.3833 17.34 33.0989 17.34C37.1171 17.34 41.4581 19.73 41.4581 26.73L41.4548 40.91Z" fill="white"/>
</g>
<defs>
<clipPath id="clip0_482_47459">
<rect width="47.9" height="48" fill="white" transform="translate(0.633301)"/>
</clipPath>
</defs>
</svg>
