<svg width="49" height="48" viewBox="0 0 49 48" fill="none" xmlns="http://www.w3.org/2000/svg">
<g clip-path="url(#clip0_482_47460)">
<path d="M27.4687 23.6554C27.4687 31.1968 21.4203 37.3103 13.9597 37.3103C6.49903 37.3103 0.450195 31.1955 0.450195 23.6554C0.450195 16.1153 6.49857 10 13.9597 10C21.4208 10 27.4687 16.114 27.4687 23.6554Z" fill="white"/>
<path d="M42.2883 23.6553C42.2883 30.7539 39.2641 36.5108 35.5336 36.5108C31.803 36.5108 28.7788 30.7539 28.7788 23.6553C28.7788 16.5567 31.8025 10.7998 35.5331 10.7998C39.2636 10.7998 42.2878 16.5548 42.2878 23.6553" fill="white"/>
<path d="M48.35 23.6554C48.35 30.0141 47.2865 35.1719 45.9743 35.1719C44.6621 35.1719 43.5991 30.0154 43.5991 23.6554C43.5991 17.2954 44.6626 12.1389 45.9743 12.1389C47.2861 12.1389 48.35 17.2949 48.35 23.6554Z" fill="white"/>
</g>
<defs>
<clipPath id="clip0_482_47460">
<rect width="47.9" height="48" fill="white" transform="translate(0.450195)"/>
</clipPath>
</defs>
</svg>
