<svg width="80" height="80" viewBox="0 0 80 80" fill="none" xmlns="http://www.w3.org/2000/svg">
<path d="M32.9387 61.3495L44.9915 16.3677C45.2438 15.4262 44.6851 14.4586 43.7437 14.2063L24.6146 9.08071C23.6732 8.82846 22.7055 9.38713 22.4533 10.3285L10.4004 55.3104C8.73277 61.5342 12.4262 67.9314 18.65 69.5991C24.8738 71.2667 31.271 67.5733 32.9387 61.3495Z" stroke="#0B5570" stroke-width="2" stroke-linecap="round" stroke-linejoin="round"/>
<path d="M21.6665 69.9996L68.2351 69.9997C69.2098 69.9997 69.9998 69.2096 69.9998 68.2349V48.431" stroke="#0B5570" stroke-width="2" stroke-linecap="round" stroke-linejoin="round"/>
<path d="M21.6665 58.6667H21.6732V58.6734H21.6665V58.6667Z" stroke="#0B5570" stroke-width="2" stroke-linecap="round" stroke-linejoin="round"/>
<path d="M26.6001 68.9041L68.8056 49.2233C69.6889 48.8114 70.0711 47.7615 69.6592 46.8782L61.2897 28.9297C60.8778 28.0464 59.8278 27.6643 58.9445 28.0762L40.1 36.8635" stroke="#0B5570" stroke-width="2" stroke-linecap="round" stroke-linejoin="round"/>
</svg>
