<svg width="80" height="80" viewBox="0 0 80 80" fill="none" xmlns="http://www.w3.org/2000/svg">
<path d="M23.3335 66.6666C23.3335 61.1438 30.7954 56.6666 40.0002 56.6666C49.2049 56.6666 56.6668 61.1438 56.6668 66.6666" stroke="#0B5570" stroke-width="2" stroke-linecap="round" stroke-linejoin="round"/>
<path d="M60 47.4984C65.8863 49.0415 70 52.5657 70 56.6663" stroke="#0B5570" stroke-width="2" stroke-linecap="round" stroke-linejoin="round"/>
<path d="M20 47.4984C14.1137 49.0415 10 52.5657 10 56.6663" stroke="#0B5570" stroke-width="2" stroke-linecap="round" stroke-linejoin="round"/>
<path d="M40 46.6666C45.5228 46.6666 50 42.1895 50 36.6666C50 31.1438 45.5228 26.6666 40 26.6666C34.4772 26.6666 30 31.1438 30 36.6666C30 42.1895 34.4772 46.6666 40 46.6666Z" stroke="#0B5570" stroke-width="2" stroke-linecap="round" stroke-linejoin="round"/>
<path d="M59.9998 34.1203C62.0457 32.2892 63.3332 29.6283 63.3332 26.6666C63.3332 21.1438 58.856 16.6666 53.3332 16.6666C50.772 16.6666 48.4357 17.6295 46.6665 19.2129" stroke="#0B5570" stroke-width="2" stroke-linecap="round" stroke-linejoin="round"/>
<path d="M19.9998 34.1203C17.954 32.2892 16.6665 29.6283 16.6665 26.6666C16.6665 21.1438 21.1437 16.6666 26.6665 16.6666C29.2277 16.6666 31.564 17.6295 33.3332 19.2129" stroke="#0B5570" stroke-width="2" stroke-linecap="round" stroke-linejoin="round"/>
</svg>
