<svg width="149" height="37" viewBox="0 0 149 37" fill="none" xmlns="http://www.w3.org/2000/svg">
<circle cx="7.5" cy="7.5" r="7.5" fill="#AE2780"/>
<circle cx="43.5" cy="9.5" r="4.5" fill="#6FA0FF"/>
<circle cx="29" cy="20" r="6" fill="#00AFA3"/>
<circle cx="39" cy="32" r="5" fill="#FF8E26"/>
<circle cx="11.5" cy="30.5" r="6.5" fill="#0B5570"/>
<path d="M65.5234 27.9297V14.7656C65.5234 13.2552 66.0703 11.7839 67.1641 10.3516C68.7005 8.42448 70.7578 7.46094 73.3359 7.46094V10.0781C71.2526 10.0781 69.7292 10.9896 68.7656 12.8125C68.401 13.5156 68.2188 14.1667 68.2188 14.7656V27.9297C68.2188 28.9974 68.6745 30.013 69.5859 30.9766C70.5755 32.0443 71.8255 32.5781 73.3359 32.5781V35.1953C70.3411 35.1953 68.1016 33.9583 66.6172 31.4844C65.888 30.2604 65.5234 29.0755 65.5234 27.9297ZM75.2109 35.1953V32.5781C75.2109 32.5781 75.6406 32.5 76.5 32.3438C78.1927 31.7969 79.2865 30.7682 79.7812 29.2578C79.9115 28.8932 80.0026 28.4635 80.0547 27.9688C80.0807 27.7865 80.0938 27.5651 80.0938 27.3047L82.5547 27.8906C82.5547 30.1302 81.6432 31.9922 79.8203 33.4766C78.4141 34.6224 76.8776 35.1953 75.2109 35.1953ZM75.2109 10.0781V7.46094C77.1641 7.4349 78.9219 8.25521 80.4844 9.92188C81.8646 11.4323 82.5547 13.0729 82.5547 14.8438L80.0547 15.5078C80.0547 15.1693 80.0417 14.9479 80.0156 14.8438C80.0156 14.4531 79.9375 14.0755 79.7812 13.7109C79.5469 13.0599 79.2214 12.487 78.8047 11.9922C78.4141 11.4974 78.0104 11.1328 77.5938 10.8984C77.2031 10.6641 76.8255 10.4818 76.4609 10.3516C76.0964 10.2214 75.7969 10.1432 75.5625 10.1172L75.2109 10.0781ZM85.4062 29.3359V19.8828C85.4062 18.6849 85.9531 17.5 87.0469 16.3281C88.349 14.9479 89.9896 14.2578 91.9688 14.2578V16.7578C90.3281 16.7578 89.1432 17.4479 88.4141 18.8281C88.1276 19.375 87.9844 19.8958 87.9844 20.3906V28.8281C87.9844 29.8177 88.4531 30.7292 89.3906 31.5625C90.1719 32.2135 91.0443 32.5391 92.0078 32.5391V35.0391C89.5859 35.0391 87.7109 34.0625 86.3828 32.1094C85.7318 31.1198 85.4062 30.1953 85.4062 29.3359ZM93.6484 35.0391V32.5391C95.1589 32.5391 96.2917 31.862 97.0469 30.5078C97.3333 29.9349 97.4766 29.401 97.4766 28.9062V20.3906C97.4766 19.2969 97.0078 18.3594 96.0703 17.5781C95.3672 17.0312 94.5599 16.7578 93.6484 16.7578V14.2578C96.0182 14.2578 97.8281 15.2214 99.0781 17.1484C99.7031 18.112 100.016 19.0234 100.016 19.8828V29.3359C100.016 30.5599 99.4948 31.7578 98.4531 32.9297C97.1771 34.3099 95.5755 35.013 93.6484 35.0391ZM103.141 35V7.53906H105.836V35H103.141ZM109.117 35V7.53906H111.812V35H109.117ZM114.859 30.1562C114.859 31.5625 115.549 32.7604 116.93 33.75C118.102 34.5573 119.482 34.9609 121.07 34.9609V32.5391C118.961 32.5391 117.711 31.8229 117.32 30.3906C117.242 30.1042 117.203 29.8177 117.203 29.5312V28.2812C117.229 27.6823 117.385 27.2396 117.672 26.9531C118.062 26.5625 119.612 26.0547 122.32 25.4297C124.508 24.9089 125.966 24.4661 126.695 24.1016V29.0234C126.695 31.1849 125.615 32.3438 123.453 32.5C123.271 32.526 123.102 32.5391 122.945 32.5391V34.9609C124.794 34.9609 126.24 34.5182 127.281 33.6328C127.307 33.6068 127.333 33.5807 127.359 33.5547C128.089 34.4922 129.052 34.9609 130.25 34.9609V32.5C129.599 32.4479 129.26 32.0182 129.234 31.2109V20.2734C129.234 18.5286 128.583 17.0443 127.281 15.8203C126.109 14.7266 124.664 14.1797 122.945 14.1797V16.5234C124.195 16.5234 125.198 17.0443 125.953 18.0859C126.422 18.737 126.656 19.4792 126.656 20.3125V21.0156C126.682 21.6667 125.107 22.3958 121.93 23.2031C118.961 23.9583 117.255 24.4531 116.812 24.6875C115.536 25.4167 114.885 26.6276 114.859 28.3203V30.1562ZM115.133 19.375L117.438 20.2734C117.438 18.7891 118.076 17.7083 119.352 17.0312C119.898 16.7448 120.484 16.6016 121.109 16.6016V14.1797C119.339 14.1797 117.828 14.8047 116.578 16.0547C115.589 17.0443 115.107 18.151 115.133 19.375ZM133.258 35V7.5H135.875V35H133.258ZM137.711 35V32.5H141.422C142.516 32.5 143.479 32.0182 144.312 31.0547C144.807 30.4557 145.055 29.8568 145.055 29.2578V20C145.055 19.0365 144.547 18.1901 143.531 17.4609C142.854 16.9922 142.164 16.7578 141.461 16.7578H137.711V14.2578H141.461C143.414 14.2578 145.042 15.0651 146.344 16.6797C147.177 17.7214 147.607 18.776 147.633 19.8438V29.3359C147.633 30.5599 147.099 31.7578 146.031 32.9297C144.781 34.2839 143.232 34.974 141.383 35H137.711Z" fill="#0B5570"/>
</svg>
